<?xml version="1.0" encoding="UTF-8"?>
<!DOCTYPE svg PUBLIC "-//W3C//DTD SVG 1.1//EN" "http://www.w3.org/Graphics/SVG/1.1/DTD/svg11.dtd">
<svg version="1.2" viewBox="21776 1441 2240 1520" preserveAspectRatio="xMidYMid" fill-rule="evenodd" stroke-width="28.222" stroke-linejoin="round" xmlns="http://www.w3.org/2000/svg" xmlns:ooo="http://xml.openoffice.org/svg/export" xmlns:xlink="http://www.w3.org/1999/xlink" xmlns:presentation="http://sun.com/xmlns/staroffice/presentation" xmlns:smil="http://www.w3.org/2001/SMIL20/" xmlns:anim="urn:oasis:names:tc:opendocument:xmlns:animation:1.0" xmlns:svg="urn:oasis:names:tc:opendocument:xmlns:svg-compatible:1.0" xml:space="preserve">
 <defs class="EmbeddedBulletChars">
  <g id="bullet-char-template-57356" transform="scale(0.00048828125,-0.00048828125)">
   <path d="M 580,1141 L 1163,571 580,0 -4,571 580,1141 Z"/>
  </g>
  <g id="bullet-char-template-57354" transform="scale(0.00048828125,-0.00048828125)">
   <path d="M 8,1128 L 1137,1128 1137,0 8,0 8,1128 Z"/>
  </g>
  <g id="bullet-char-template-10146" transform="scale(0.00048828125,-0.00048828125)">
   <path d="M 174,0 L 602,739 174,1481 1456,739 174,0 Z M 1358,739 L 309,1346 659,739 1358,739 Z"/>
  </g>
  <g id="bullet-char-template-10132" transform="scale(0.00048828125,-0.00048828125)">
   <path d="M 2015,739 L 1276,0 717,0 1260,543 174,543 174,936 1260,936 717,1481 1274,1481 2015,739 Z"/>
  </g>
  <g id="bullet-char-template-10007" transform="scale(0.00048828125,-0.00048828125)">
   <path d="M 0,-2 C -7,14 -16,27 -25,37 L 356,567 C 262,823 215,952 215,954 215,979 228,992 255,992 264,992 276,990 289,987 310,991 331,999 354,1012 L 381,999 492,748 772,1049 836,1024 860,1049 C 881,1039 901,1025 922,1006 886,937 835,863 770,784 769,783 710,716 594,584 L 774,223 C 774,196 753,168 711,139 L 727,119 C 717,90 699,76 672,76 641,76 570,178 457,381 L 164,-76 C 142,-110 111,-127 72,-127 30,-127 9,-110 8,-76 1,-67 -2,-52 -2,-32 -2,-23 -1,-13 0,-2 Z"/>
  </g>
  <g id="bullet-char-template-10004" transform="scale(0.00048828125,-0.00048828125)">
   <path d="M 285,-33 C 182,-33 111,30 74,156 52,228 41,333 41,471 41,549 55,616 82,672 116,743 169,778 240,778 293,778 328,747 346,684 L 369,508 C 377,444 397,411 428,410 L 1163,1116 C 1174,1127 1196,1133 1229,1133 1271,1133 1292,1118 1292,1087 L 1292,965 C 1292,929 1282,901 1262,881 L 442,47 C 390,-6 338,-33 285,-33 Z"/>
  </g>
  <g id="bullet-char-template-9679" transform="scale(0.00048828125,-0.00048828125)">
   <path d="M 813,0 C 632,0 489,54 383,161 276,268 223,411 223,592 223,773 276,916 383,1023 489,1130 632,1184 813,1184 992,1184 1136,1130 1245,1023 1353,916 1407,772 1407,592 1407,412 1353,268 1245,161 1136,54 992,0 813,0 Z"/>
  </g>
  <g id="bullet-char-template-8226" transform="scale(0.00048828125,-0.00048828125)">
   <path d="M 346,457 C 273,457 209,483 155,535 101,586 74,649 74,723 74,796 101,859 155,911 209,963 273,989 346,989 419,989 480,963 531,910 582,859 608,796 608,723 608,648 583,586 532,535 482,483 420,457 346,457 Z"/>
  </g>
  <g id="bullet-char-template-8211" transform="scale(0.00048828125,-0.00048828125)">
   <path d="M -4,459 L 1135,459 1135,606 -4,606 -4,459 Z"/>
  </g>
  <g id="bullet-char-template-61548" transform="scale(0.00048828125,-0.00048828125)">
   <path d="M 173,740 C 173,903 231,1043 346,1159 462,1274 601,1332 765,1332 928,1332 1067,1274 1183,1159 1299,1043 1357,903 1357,740 1357,577 1299,437 1183,322 1067,206 928,148 765,148 601,148 462,206 346,322 231,437 173,577 173,740 Z"/>
  </g>
 </defs>
 <g ooo:name="page4" class="Page">
  <g class="Group">
   <g class="com.sun.star.drawing.ClosedBezierShape">
    <g id="id3">
     <rect class="BoundingBox" stroke="none" fill="none" x="21776" y="1441" width="1479" height="1520"/>
     <path fill="rgb(255,51,51)" stroke="none" d="M 22576,2720 L 22416,2960 22217,2960 C 22186,2960 22157,2957 22129,2950 22101,2943 22073,2934 22047,2922 21998,2898 21951,2866 21911,2825 21871,2784 21839,2739 21815,2688 21803,2664 21793,2636 21787,2608 21780,2578 21776,2550 21776,2520 L 21776,1882 C 21776,1851 21780,1822 21787,1794 21793,1766 21803,1738 21815,1712 21839,1663 21871,1616 21911,1576 21951,1536 21998,1504 22047,1480 22073,1468 22101,1458 22129,1452 22157,1445 22186,1441 22217,1441 L 23254,1441 23055,1680 22217,1680 C 22205,1680 22194,1683 22185,1684 22170,1687 22161,1692 22149,1698 22124,1710 22101,1727 22079,1744 22062,1766 22045,1789 22033,1814 22027,1826 22022,1835 22019,1850 22018,1859 22015,1870 22015,1882 L 22015,2520 C 22015,2531 22018,2542 22019,2552 22022,2565 22027,2576 22033,2588 22045,2613 22062,2636 22079,2656 22101,2675 22124,2692 22149,2704 22161,2709 22170,2713 22185,2717 22194,2719 22205,2720 22217,2720 L 22576,2720 Z"/>
    </g>
   </g>
   <g class="com.sun.star.drawing.ClosedBezierShape">
    <g id="id4">
     <rect class="BoundingBox" stroke="none" fill="none" x="22575" y="1441" width="1441" height="1520"/>
     <path fill="rgb(0,0,255)" stroke="none" d="M 23216,1680 L 23376,1441 23576,1441 C 23613,1441 23648,1445 23680,1452 23716,1456 23745,1466 23775,1478 23803,1490 23831,1505 23854,1524 23878,1542 23899,1563 23918,1584 23954,1627 23977,1676 23994,1730 24009,1777 24015,1830 24015,1882 L 24015,2520 C 24015,2572 24009,2624 23994,2672 23977,2725 23954,2775 23918,2816 23899,2839 23878,2859 23854,2878 23831,2896 23803,2911 23775,2923 23745,2935 23716,2946 23680,2950 23648,2957 23613,2960 23576,2960 L 22576,2960 22736,2720 23576,2720 C 23597,2720 23617,2719 23636,2716 23653,2712 23666,2709 23680,2701 23692,2697 23701,2692 23711,2685 23719,2678 23727,2672 23732,2664 23748,2646 23757,2626 23764,2604 23773,2577 23776,2549 23776,2520 L 23776,1882 C 23776,1853 23773,1824 23764,1798 23757,1775 23748,1755 23732,1738 23727,1730 23719,1723 23711,1716 23701,1710 23692,1704 23680,1699 23666,1692 23653,1689 23636,1686 23617,1683 23597,1680 23576,1680 L 23216,1680 Z"/>
    </g>
   </g>
  </g>
 </g>
</svg>